<svg xmlns="http://www.w3.org/2000/svg" viewBox="0 0 640 360" width="640" height="360" role="img" aria-label="Professional services website demo preview">
  <defs>
    <linearGradient id="pBg" x1="0" y1="0" x2="1" y2="1">
      <stop offset="0%" stop-color="#0c4a6e"/>
      <stop offset="100%" stop-color="#1e3a8a"/>
    </linearGradient>
  </defs>
  <rect width="640" height="360" fill="url(#pBg)"/>
  <rect x="40" y="36" width="560" height="288" rx="16" fill="#0f172a" stroke="#1e3a8a"/>
  <rect x="40" y="36" width="560" height="48" fill="#082f49"/>
  <circle cx="64" cy="60" r="5" fill="#f87171"/>
  <circle cx="82" cy="60" r="5" fill="#fbbf24"/>
  <circle cx="100" cy="60" r="5" fill="#34d399"/>
  <rect x="120" y="50" width="170" height="20" rx="10" fill="#1e3a8a"/>
  <text x="132" y="64" fill="#bfdbfe" font-family="ui-sans-serif,system-ui" font-size="11">clarkeandpartners.co.uk</text>
  <rect x="68" y="108" width="110" height="10" rx="5" fill="#60a5fa"/>
  <rect x="68" y="134" width="280" height="20" rx="6" fill="#f8fafc"/>
  <rect x="68" y="172" width="240" height="10" rx="5" fill="#64748b"/>
  <rect x="68" y="204" width="200" height="40" rx="10" fill="#1e293b" stroke="#334155"/>
  <rect x="68" y="256" width="200" height="40" rx="10" fill="#1e293b" stroke="#334155"/>
  <rect x="400" y="120" width="160" height="160" rx="16" fill="#1e293b" stroke="#334155"/>
  <rect x="420" y="148" width="120" height="10" rx="5" fill="#93c5fd"/>
  <rect x="420" y="176" width="100" height="8" rx="4" fill="#64748b"/>
  <rect x="420" y="196" width="110" height="8" rx="4" fill="#64748b"/>
  <rect x="420" y="236" width="96" height="28" rx="14" fill="#2563eb"/>
</svg>
