<svg xmlns="http://www.w3.org/2000/svg" viewBox="0 0 640 360" width="640" height="360" role="img" aria-label="Shop and cafe website demo preview">
  <defs>
    <linearGradient id="sBg" x1="0" y1="0" x2="1" y2="1">
      <stop offset="0%" stop-color="#1c1917"/>
      <stop offset="100%" stop-color="#78350f"/>
    </linearGradient>
  </defs>
  <rect width="640" height="360" fill="url(#sBg)"/>
  <rect x="40" y="36" width="560" height="288" rx="16" fill="#292524" stroke="#44403c"/>
  <rect x="40" y="36" width="560" height="48" fill="#1c1917"/>
  <circle cx="64" cy="60" r="5" fill="#f87171"/>
  <circle cx="82" cy="60" r="5" fill="#fbbf24"/>
  <circle cx="100" cy="60" r="5" fill="#34d399"/>
  <rect x="120" y="50" width="150" height="20" rx="10" fill="#44403c"/>
  <text x="132" y="64" fill="#d6d3d1" font-family="ui-sans-serif,system-ui" font-size="11">cornercafe.co.uk</text>
  <rect x="68" y="108" width="100" height="10" rx="5" fill="#fbbf24"/>
  <rect x="68" y="134" width="240" height="20" rx="6" fill="#fafaf9"/>
  <rect x="68" y="172" width="100" height="28" rx="8" fill="#d97706"/>
  <rect x="178" y="172" width="100" height="28" rx="8" fill="#44403c"/>
  <rect x="68" y="220" width="220" height="16" rx="6" fill="#57534e"/>
  <rect x="68" y="248" width="180" height="16" rx="6" fill="#57534e"/>
  <rect x="68" y="276" width="200" height="16" rx="6" fill="#57534e"/>
  <rect x="400" y="120" width="160" height="140" rx="16" fill="#1c1917" stroke="#57534e"/>
  <circle cx="480" cy="180" r="28" fill="#22c55e" opacity="0.35"/>
  <path d="M480 158c-12 0-22 9-22 22 0 16 22 34 22 34s22-18 22-34c0-13-10-22-22-22z" fill="#4ade80"/>
  <text x="448" y="240" fill="#86efac" font-family="ui-sans-serif,system-ui" font-size="11" font-weight="700">Open today</text>
</svg>
